<?xml version="1.0" encoding="utf-8"?>
<!-- Generator: Adobe Illustrator 25.3.1, SVG Export Plug-In . SVG Version: 6.00 Build 0)  -->
<svg version="1.1" id="Layer_1" xmlns="http://www.w3.org/2000/svg" xmlns:xlink="http://www.w3.org/1999/xlink" x="0px" y="0px"
	 viewBox="0 0 30 25" style="enable-background:new 0 0 30 25;" xml:space="preserve">
<style type="text/css">
	.st0{fill:#7F7F7F;}
</style>
<path class="st0" d="M15,1c6.3,0,11.5,5,11.5,11.2c0,2.1-0.6,4.2-1.8,6l-0.2,0.4l0.1,0.4l1,4.5l-4.1-1.5L21,21.7L20.6,22
	c-1.7,0.9-3.6,1.4-5.6,1.4c-6.3,0-11.5-5-11.5-11.2S8.7,1,15,1 M15,0C8.1,0,2.5,5.5,2.5,12.2c0,6.7,5.6,12.2,12.5,12.2
	c2.2,0,4.3-0.6,6.1-1.5l5.9,2.2l-1.4-6.3c1.2-1.9,2-4.1,2-6.5C27.5,5.5,21.9,0,15,0L15,0z"/>
</svg>
