<?xml version="1.0" encoding="utf-8"?>
<!-- Generator: Adobe Illustrator 25.3.1, SVG Export Plug-In . SVG Version: 6.00 Build 0)  -->
<svg version="1.1" id="Layer_1" xmlns="http://www.w3.org/2000/svg" xmlns:xlink="http://www.w3.org/1999/xlink" x="0px" y="0px"
	 viewBox="0 0 25 28" style="enable-background:new 0 0 25 28;" xml:space="preserve">
<style type="text/css">
	.st0{fill:#7F7F7F;}
</style>
<path class="st0" d="M23.7,1C23.9,1,24,1.2,24,1.4v25.6c0,0,0,0,0,0.1l-10.8-9.4L12.5,17l-0.7,0.6L1,27c0,0,0,0,0-0.1V1.4
	C1,1.2,1.1,1,1.3,1H23.7 M23.7,0H1.3C0.6,0,0,0.6,0,1.4v25.6C0,27.6,0.5,28,1,28c0.2,0,0.4-0.1,0.6-0.2l10.8-9.4l10.8,9.4
	c0.2,0.2,0.4,0.2,0.6,0.2c0.5,0,1-0.4,1-1.1V1.4C25,0.6,24.4,0,23.7,0L23.7,0z"/>
</svg>
